# xmcd
#
# Track frame offsets: 
#        150
#        47942
#        88844
#        141199
#        182768
#        228110
#        264297
#
# Disc length: 4135 seconds
#
# Revision: 0
# Processed by: cddbd v1.5.2PL0 Copyright (c) Steve Scherf et al.
# Submitted via: ExactAudioCopyFreeDBPlugin 1.0
#
DISCID=59102507
DTITLE=Ernie Krivda - Blues for Pekar
DYEAR=2011
DGENRE=Blues
TTITLE0=The End of a Love Affair
TTITLE1=More Than You Know
TTITLE2=Valse Hot
TTITLE3=Darn That Dream
TTITLE4=Fried Bananas
TTITLE5=One for Willie
TTITLE6=Blues for Pekar
EXTD=
EXTT0=
EXTT1=
EXTT2=
EXTT3=
EXTT4=
EXTT5=
EXTT6=
PLAYORDER=
